<svg height="474pt" viewBox="0 -88 474.35694 474" width="474pt" xmlns="http://www.w3.org/2000/svg" xmlns:xlink="http://www.w3.org/1999/xlink"><linearGradient id="a"><stop offset=".322" stop-color="#a163f5"/><stop offset=".466" stop-color="#b074ee"/><stop offset=".752" stop-color="#d8a1dd"/><stop offset=".898" stop-color="#efbad3"/></linearGradient><linearGradient id="b" gradientTransform="matrix(1 0 0 -1 -18.274032 405.84547)" gradientUnits="userSpaceOnUse" x1="248.631" x2="257.632" xlink:href="#a" y1="-41.503" y2="351.536"/><linearGradient id="c" gradientTransform="matrix(1 0 0 -1 -18.274032 405.84547)" gradientUnits="userSpaceOnUse" x1="248.632" x2="257.633" xlink:href="#a" y1="-41.503" y2="351.536"/><path d="m404.28125 72.191406c-24.515625-20.765625-49.53125-37.34375-74.34375-49.261718-31.417969-15.101563-62.625-22.75-92.757812-22.75-30.128907 0-61.335938 7.652343-92.757813 22.75-24.8125 11.917968-49.824219 28.5-74.34375 49.261718-41.542969 35.1875-67.082031 69.917969-68.152344 71.378906-2.566406 3.511719-2.566406 8.285157 0 11.800782 1.066407 1.460937 26.609375 36.1875 68.152344 71.375 24.515625 20.769531 49.53125 37.34375 74.34375 49.265625 31.417969 15.097656 62.628906 22.75 92.757813 22.75 30.128906 0 61.335937-7.65625 92.757812-22.75 24.8125-11.921875 49.824219-28.5 74.34375-49.265625 41.542969-35.1875 67.082031-69.914063 68.148438-71.375 2.570312-3.515625 2.570312-8.289063 0-11.800782-1.0625-1.460937-26.605469-36.191406-68.148438-71.378906zm-167.097656 206.566406c-61.640625 0-117.675782-36.425781-153.832032-66.984374-22.148437-18.8125-42.46875-39.671876-60.699218-62.300782 20.808594-26.027344 109.988281-129.292968 214.527344-129.292968 61.640624 0 117.675781 36.421874 153.832031 66.980468 22.144531 18.8125 42.46875 39.671875 60.699219 62.300782-20.8125 26.027343-109.984376 129.300781-214.53125 129.300781zm0 0" fill="url(#b)"/><path d="m237.179688 42.554688c-59.042969 0-106.910157 47.867187-106.910157 106.910156-.003906 59.046875 47.863281 106.914062 106.910157 106.914062 59.046874 0 106.910156-47.863281 106.914062-106.910156-.066406-59.019531-47.894531-106.847656-106.914062-106.914062zm0 193.824218c-48 0-86.910157-38.910156-86.910157-86.910156-.003906-48 38.910157-86.914062 86.910157-86.914062s86.910156 38.910156 86.914062 86.910156c-.058594 47.976562-38.9375 86.855468-86.914062 86.910156zm0 0" fill="url(#c)"/></svg>